<svg version="1.1" id="Layer_1" xmlns="http://www.w3.org/2000/svg" xmlns:xlink="http://www.w3.org/1999/xlink" x="0px" y="0px"
	 width="100%" viewBox="0 0 496 496" enable-background="new 0 0 496 496" xml:space="preserve">
<path fill="#000000" opacity="1.000000" stroke="none" 
	d="
M314.637726,127.241425 
	C325.031921,131.836319 334.989685,136.497086 345.154510,140.651306 
	C361.825775,147.464615 367.101807,165.950623 360.656006,180.448853 
	C337.539886,232.442657 314.848633,284.625549 292.092804,336.778870 
	C290.641907,340.104065 288.557800,342.019196 285.186310,343.308594 
	C257.209137,354.007996 229.289230,364.857178 201.357574,375.675476 
	C195.668350,377.879028 194.561676,377.501190 192.360306,371.856415 
	C181.295135,343.483185 170.308243,315.079346 159.190994,286.726593 
	C158.104782,283.956360 158.526779,281.668457 159.651062,279.105927 
	C178.102631,237.049347 196.500717,194.969315 214.904922,152.891968 
	C219.238907,142.983215 223.979614,133.225616 227.771347,123.112831 
	C233.228622,108.557961 251.686584,98.711594 268.619812,106.913017 
	C283.588959,114.163162 299.050293,120.397133 314.637726,127.241425 
M208.757187,187.160538 
	C208.364441,188.078064 207.978424,188.998535 207.578003,189.912720 
	C195.161942,218.258682 182.861984,246.656677 170.213074,274.898376 
	C168.069229,279.684998 169.061478,281.712555 173.672440,283.345825 
	C178.051804,284.897064 182.366974,286.769989 186.447174,288.986084 
	C190.574463,291.227722 192.449814,290.147186 194.259644,285.968384 
	C208.145294,253.906906 222.265518,221.947098 236.240067,189.923935 
	C238.347168,185.095459 240.891098,180.411102 242.253479,174.797806 
	C234.391968,171.348709 226.719299,167.982468 218.744583,164.483704 
	C215.361771,172.187881 212.225357,179.330856 208.757187,187.160538 
M305.458618,286.049561 
	C308.332367,279.498749 311.209473,272.949432 314.079163,266.396851 
	C320.819977,251.005157 327.567902,235.616531 334.281158,220.212814 
	C335.031525,218.491135 336.681183,216.471649 333.809021,215.157379 
	C326.747375,211.926025 319.635010,208.805511 312.155121,205.467270 
	C295.071533,244.409409 278.265137,282.719635 261.245758,321.515381 
	C268.135193,324.567322 274.568726,327.230774 280.822815,330.264221 
	C284.086395,331.847198 285.669586,331.492950 287.174957,327.913086 
	C292.978668,314.111542 299.112671,300.448883 305.458618,286.049561 
M247.904617,247.518539 
	C256.441772,228.050659 264.978943,208.582794 273.690216,188.717865 
	C267.343048,185.871033 261.319580,183.484650 255.607391,180.502136 
	C251.449753,178.331299 249.769180,179.296097 247.950363,183.520538 
	C234.924973,213.773819 221.623840,243.908371 208.420670,274.085175 
	C205.505844,280.747253 202.632370,287.427429 199.579697,294.468689 
	C207.538589,298.117371 214.910660,301.727295 222.978470,304.439545 
	C231.347153,285.372070 239.496964,266.803253 247.904617,247.518539 
M265.496033,291.066528 
	C277.576050,263.474243 289.649780,235.879196 301.740906,208.291763 
	C304.442902,202.126831 304.472748,202.135117 298.132080,199.352127 
	C294.170227,197.613251 290.063049,196.144409 286.276062,194.085464 
	C282.521729,192.044281 280.837891,193.038818 279.236176,196.811249 
	C272.472809,212.740662 265.446808,228.558655 258.505249,244.412308 
	C249.961670,263.924713 241.518951,283.482666 232.768799,302.902069 
	C230.838760,307.185486 231.724655,309.131531 235.970200,310.646088 
	C240.504379,312.263580 244.920898,314.278809 249.229309,316.438538 
	C252.351532,318.003662 254.030426,317.328430 255.360733,314.164825 
	C258.521210,306.649109 261.887360,299.219910 265.496033,291.066528 
M337.414154,174.993927 
	C340.772675,176.459549 344.186432,177.812531 347.473083,179.424713 
	C350.350677,180.836258 351.865570,180.215149 353.168152,177.177261 
	C358.080109,165.721756 353.917419,154.014450 342.591003,148.706100 
	C335.354462,145.314545 327.977722,142.221237 320.652985,139.019058 
	C301.729736,130.746353 282.868622,122.326057 263.845276,114.290016 
	C254.117874,110.180870 243.227600,113.445663 238.058472,121.300774 
	C233.197983,128.686874 233.448349,129.499207 241.498886,133.020966 
	C273.241119,146.906845 304.978516,160.803741 337.414154,174.993927 
M174.773651,293.042572 
	C173.470367,292.711548 172.345871,291.244934 170.455078,292.528320 
	C176.381531,307.732849 182.317886,322.909698 188.198074,338.108276 
	C189.037598,340.278198 190.956680,340.886841 192.753326,341.679474 
	C202.808929,346.115631 212.936981,350.392487 222.919739,354.985687 
	C225.925491,356.368683 228.480347,356.280487 231.446030,355.094818 
	C243.350388,350.335632 255.326096,345.755066 267.263245,341.077393 
	C269.780945,340.090820 272.247223,338.973114 275.892334,337.425323 
	C241.546280,322.350952 208.485962,307.840942 174.773651,293.042572 
M244.886536,143.707947 
	C240.089615,142.011078 235.752304,139.120102 230.413818,137.876724 
	C228.383362,142.472473 226.705017,147.010162 224.426239,151.223083 
	C222.105972,155.512787 223.180283,157.394379 227.596832,159.305191 
	C260.577850,173.574341 293.472778,188.043930 326.332886,202.590240 
	C339.443512,208.393982 339.372253,208.554321 345.066162,195.661346 
	C345.469482,194.748093 345.823822,193.807480 346.298706,192.932648 
	C347.908295,189.967514 347.247223,188.355637 343.942322,186.926407 
	C311.111603,172.728592 278.355469,158.358261 244.886536,143.707947 
M207.816803,364.269257 
	C209.819916,363.076691 212.661591,363.308868 214.371719,360.479156 
	C207.483673,357.426331 200.952072,354.531525 193.382584,351.176697 
	C194.767044,354.963898 195.625931,357.470398 196.594528,359.933777 
	C199.590317,367.552979 199.606552,367.546600 207.816803,364.269257 
z"/>
<path fill="#000000" opacity="1.000000" stroke="none" 
	d="
M308.266357,454.543884 
	C307.310760,449.737091 306.479279,445.341766 305.391266,439.590454 
	C301.244141,448.775482 297.586365,456.876648 293.534302,465.851105 
	C286.639374,459.139404 280.407104,453.072784 274.174835,447.006165 
	C273.894196,447.168030 273.613556,447.329865 273.332916,447.491730 
	C274.486084,453.778137 275.643494,460.063751 276.789001,466.351562 
	C277.026794,467.656738 277.145355,468.987793 277.450806,470.275604 
	C277.972412,472.474640 277.337952,473.797943 274.974457,474.185455 
	C272.709747,474.556702 271.398193,473.523499 270.998230,471.450195 
	C268.861542,460.373352 266.776367,449.286346 264.737823,438.191010 
	C264.472229,436.745514 264.339935,435.249237 266.308319,434.511566 
	C268.534332,433.677399 270.430664,433.598602 272.245636,435.416016 
	C276.947296,440.123932 281.692108,444.789642 286.476196,449.413757 
	C287.873779,450.764557 289.002960,452.517975 291.698212,453.209503 
	C294.875092,446.198822 298.067932,439.140289 301.274872,432.088196 
	C301.825012,430.878357 302.311981,429.613068 303.046234,428.519836 
	C304.207611,426.790680 306.047729,426.578400 307.946381,426.817230 
	C309.868164,427.058990 310.068390,428.574860 310.355286,430.098572 
	C312.349823,440.691437 314.318512,451.290009 316.449158,461.855743 
	C316.995270,464.564026 316.852234,466.404449 313.623840,466.848907 
	C310.364777,467.297607 310.245514,464.834625 309.794800,462.794006 
	C309.222717,460.204102 308.849487,457.570221 308.266357,454.543884 
z"/>
<path fill="#000000" opacity="1.000000" stroke="none" 
	d="
M59.529640,347.787689 
	C54.557095,343.799683 53.173759,349.871155 49.059753,350.495331 
	C55.345394,360.442352 61.244934,369.778381 67.066322,378.990723 
	C63.866871,382.686859 61.628674,383.154083 59.063545,378.926117 
	C53.713352,370.107758 48.053192,361.474579 42.391232,352.850067 
	C40.628654,350.165222 40.335434,348.327667 43.490650,346.373474 
	C52.544662,340.765930 61.499691,334.992554 70.372871,329.102478 
	C73.277390,327.174408 74.984428,327.597534 76.789833,330.511353 
	C82.311615,339.423279 88.028717,348.214020 93.646652,357.066650 
	C94.868492,358.991974 96.663284,360.812469 93.539780,362.893799 
	C90.166634,365.141510 89.160637,362.554382 87.842659,360.507019 
	C83.699051,354.070190 79.561913,347.628357 75.509346,341.134094 
	C73.635117,338.130615 72.306114,335.708282 67.899185,338.572937 
	C63.806137,341.233551 64.466255,343.235382 66.637917,346.494202 
	C70.678116,352.556946 74.415085,358.821777 78.276207,364.999176 
	C75.213120,368.605438 72.876244,369.149109 70.374962,364.944275 
	C66.973045,359.225403 63.270523,353.685364 59.529640,347.787689 
z"/>
<path fill="#000000" opacity="1.000000" stroke="none" 
	d="
M451.290649,363.233490 
	C447.957123,368.443115 444.740234,373.298767 441.687195,378.255371 
	C440.123169,380.794586 438.639435,381.786774 435.722473,379.865387 
	C426.693604,373.918274 417.553772,368.136414 408.376526,362.419586 
	C405.548157,360.657715 405.527924,358.852295 407.207428,356.276428 
	C413.113190,347.218567 418.960175,338.120972 424.702576,328.958923 
	C426.152313,326.645782 427.506134,326.032745 429.913574,327.624908 
	C432.338867,329.228882 431.587891,330.804443 430.397675,332.644379 
	C426.331604,338.929932 422.289001,345.230865 418.273102,351.548615 
	C417.038208,353.491394 415.917633,355.506836 414.901642,357.223846 
	C415.389648,359.130219 416.774567,359.568512 417.780182,360.383667 
	C421.156494,363.120514 423.686401,362.997986 426.007172,358.779572 
	C428.807922,353.688751 432.415009,349.044769 435.277405,343.983612 
	C437.677124,339.740448 439.951385,339.931793 443.316528,343.917480 
	C439.976959,349.130981 436.509003,354.520782 433.065552,359.926178 
	C428.056824,367.788605 428.064392,367.793427 437.267578,372.317810 
	C441.253693,366.191437 445.303772,359.979187 449.339417,353.757629 
	C450.787994,351.524323 452.202942,349.269196 453.631042,347.022675 
	C454.751984,345.259338 456.036774,344.378418 458.144653,345.721619 
	C460.275299,347.079376 460.616058,348.633789 459.263580,350.723206 
	C456.642181,354.772888 454.068573,358.853485 451.290649,363.233490 
z"/>
<path fill="#000000" opacity="1.000000" stroke="none" 
	d="
M395.156860,401.565094 
	C391.193939,398.984497 391.497894,396.794891 394.858673,394.133606 
	C398.764069,391.041138 402.361053,387.550415 406.002655,384.137299 
	C407.824890,382.429443 409.364441,382.282288 411.041779,384.266144 
	C413.079712,386.676483 415.446564,388.846191 417.233124,391.423584 
	C420.800323,396.569641 420.328003,402.533203 415.925049,406.899139 
	C411.676849,411.111725 407.250336,415.175232 402.630310,418.973602 
	C397.839661,422.912170 391.139648,422.528503 386.756226,418.115631 
	C382.657013,413.988892 378.705505,409.680939 375.036499,405.170044 
	C370.483582,399.572449 370.764771,393.677368 375.834747,388.575348 
	C379.933075,384.451019 384.320526,380.591125 388.787598,376.862976 
	C392.563873,373.711273 396.970215,373.399170 401.451721,375.317871 
	C402.943695,375.956604 404.852875,376.849121 404.100555,378.904968 
	C403.409576,380.793060 401.862610,382.602600 399.530457,381.701202 
	C395.316071,380.072357 392.604034,382.088226 389.851440,384.817871 
	C387.137817,387.508789 384.168274,389.940033 381.345490,392.522858 
	C378.219757,395.382935 377.947418,398.470520 380.806976,401.680664 
	C384.016571,405.283813 387.211121,408.903259 390.518280,412.415710 
	C393.416107,415.493469 396.535950,415.591553 399.708374,412.714539 
	C402.789856,409.919952 405.950775,407.210846 408.980133,404.361481 
	C414.272125,399.383820 414.112518,396.889587 408.154236,391.702148 
	C403.249298,394.085663 400.791107,399.749573 395.156860,401.565094 
z"/>
<path fill="#000000" opacity="1.000000" stroke="none" 
	d="
M89.696457,384.708984 
	C93.507957,380.487274 97.177597,376.611237 100.619965,372.542938 
	C102.491951,370.330536 104.146797,369.787628 106.408936,371.892151 
	C112.630302,377.680115 119.054626,383.258759 125.107414,389.216095 
	C129.586929,393.625000 129.962494,400.153381 126.031433,405.137695 
	C122.325935,409.835968 118.296509,414.324677 114.036957,418.527954 
	C109.171341,423.329346 103.052841,423.574982 97.779137,419.152130 
	C91.271805,413.694733 85.121590,407.813385 78.751488,402.189484 
	C76.620956,400.308502 76.772751,398.745056 78.660355,396.772400 
	C82.345406,392.921295 85.869247,388.915985 89.696457,384.708984 
M107.973061,382.597809 
	C106.671478,381.622131 105.762344,380.089966 103.330391,379.631409 
	C98.002625,386.092133 91.459175,391.900970 86.051224,399.583466 
	C91.644051,404.606628 96.994164,409.527527 102.482185,414.289520 
	C105.028984,416.499420 107.527161,415.394104 109.529602,413.312347 
	C112.979294,409.725952 116.308243,406.020844 119.618805,402.304047 
	C122.759171,398.778290 122.408501,395.500031 118.842232,392.403290 
	C115.333893,389.356903 111.936066,386.183197 107.973061,382.597809 
z"/>
<path fill="#000000" opacity="1.000000" stroke="none" 
	d="
M367.221313,437.762421 
	C365.606812,433.183899 363.251434,432.890350 359.483795,435.063629 
	C353.461395,438.537598 347.153809,441.517181 341.054596,444.660492 
	C340.896545,447.868408 342.866638,449.919830 343.881348,452.311890 
	C344.793640,454.462463 344.211823,455.715027 342.188477,456.712280 
	C340.089142,457.747070 338.801270,457.221100 337.783142,455.177399 
	C333.929108,447.441071 329.826172,439.823059 326.172028,431.994751 
	C323.486877,426.242249 325.437408,420.096039 330.923950,416.891113 
	C336.079865,413.879303 341.430725,411.141937 346.892853,408.730042 
	C352.671356,406.178375 358.788849,407.740814 361.788452,412.985870 
	C366.637512,421.464935 370.843964,430.311554 375.257538,438.878265 
	C370.380615,443.073883 370.139771,443.035980 367.221313,437.762421 
M342.019379,418.540558 
	C340.091095,419.526367 338.174469,420.535828 336.232147,421.493134 
	C331.946503,423.605560 330.983246,426.831818 333.141449,430.980865 
	C334.422668,433.443878 335.168762,436.259216 337.856812,438.539795 
	C344.714813,435.064331 351.671570,431.547455 358.618927,428.012146 
	C360.354340,427.129028 361.031433,425.871216 360.126190,423.926910 
	C356.070221,415.215637 354.701141,411.180603 344.465729,417.298950 
	C343.894836,417.640198 343.285919,417.917847 342.019379,418.540558 
z"/>
<path fill="#000000" opacity="1.000000" stroke="none" 
	d="
M177.773682,436.707336 
	C175.383347,442.971130 173.212143,448.910675 170.853592,454.774872 
	C169.954254,457.010895 169.871872,460.553986 165.730087,459.114929 
	C161.553452,457.663727 163.665756,454.953125 164.523575,452.641785 
	C167.186081,445.467926 169.965363,438.337494 172.688843,431.186218 
	C173.273819,429.650208 174.149643,428.182617 173.845703,425.816589 
	C170.133667,424.364594 166.173660,422.753052 162.165436,421.272034 
	C159.865692,420.422241 158.959641,419.119537 159.962296,416.706543 
	C161.006439,414.193695 162.885742,414.294189 164.912155,415.064423 
	C175.331833,419.024933 185.731277,423.038666 196.146851,427.010010 
	C198.245438,427.810181 198.949753,429.084564 198.093658,431.272522 
	C197.276993,433.359680 196.028091,434.131409 193.854172,433.305237 
	C189.821869,431.772888 185.768936,430.294769 181.529968,428.721863 
	C179.519623,430.988373 179.016434,433.821655 177.773682,436.707336 
z"/>
<path fill="#000000" opacity="1.000000" stroke="none" 
	d="
M136.164734,419.225464 
	C138.780014,414.941498 141.201599,410.966461 143.623398,406.991547 
	C144.841125,404.992889 146.297409,404.243683 148.575317,405.598236 
	C150.925552,406.995728 150.699982,408.488281 149.443985,410.526672 
	C143.688889,419.866608 137.998917,429.247101 132.347015,438.649933 
	C131.035400,440.832001 129.693344,441.842651 127.140678,440.296875 
	C124.312531,438.584198 125.503540,436.811768 126.670433,434.890747 
	C129.777283,429.776001 132.871735,424.653687 136.164734,419.225464 
z"/>
<path fill="#000000" opacity="1.000000" stroke="none" 
	d="
M242.700378,463.949615 
	C242.821304,455.307404 242.848404,447.153046 243.116058,439.006592 
	C243.192429,436.682343 242.938339,433.610077 246.833511,433.834686 
	C250.694016,434.057343 250.062500,437.042511 250.023010,439.403625 
	C249.847824,449.878113 249.526611,460.350098 249.306793,470.823975 
	C249.263214,472.899994 248.832458,474.391479 246.311111,474.418549 
	C243.861649,474.444824 242.560303,473.548676 242.675034,470.928253 
	C242.769547,468.769440 242.696609,466.603363 242.700378,463.949615 
z"/>
</svg>